<?xml version="1.0" encoding="UTF-8"?>
<svg id="Camada_1" data-name="Camada 1" xmlns="http://www.w3.org/2000/svg" viewBox="0 0 35 35">
  <defs>
    <style>
      .cls-1 {
        fill: #878787;
      }
    </style>
  </defs>
  <path class="cls-1" d="M16.91,30.36c-.63-.18-1.17-.52-1.68-.93-3.56-2.86-5.86-8.31-7.06-12.63-.69-2.48-1.18-5.03-1.47-7.6h4.23c.62,5.4,1.99,10.78,5.11,15.28.43.62.93,1.21,1.35,1.83.06.04.24-.17.29-.22,1.64-1.7,2.97-3.73,4.04-5.83-3.41-1.74-4.94-5.85-4.47-9.53.43-3.33,2.89-5.51,6.29-5.28,4.29.29,5.39,4.08,4.82,7.79-.13.86-.38,1.71-.73,2.51-1.29.33-2.8,0-3.61-1.11-.04-.09.21-.88.24-1.07.25-1.24.54-4.31-1.36-4.38-1.67-.06-1.85,2.29-1.77,3.48.23,3.27,2.55,5.48,5.86,5.37l1.53-.19v2.89c-.95.36-2.02.29-3.01.44-1.03,2.09-2.34,4.04-3.87,5.81-.98,1.13-2.07,2.27-3.33,3.09l-.73.27h-.68Z"/>
</svg>